<svg viewBox="0 0 300 100" xmlns="http://www.w3.org/2000/svg"><g fill="#050f19"><path d="m33.02 33.05v33.97h23.5v-4.93h-18.07v-29.04z"/><path d="m85.49 33.05-9.72 13.72-9.72-13.72h-6.23l13.18 18.57v15.4h5.35v-15.55l13.18-18.42z"/><path d="m126.54 33.05v24.56l-19.25-24.56h-4.67v33.97h5.27v-24.72l19.37 24.72h4.52v-33.97z"/><path d="m146.54 33.13h5.35v33.97h-5.35z"/><path d="m178.36 32.9-14.88 34.2h5.69l3.65-8.42h16.18l3.68 8.42h5.74l-14.9-34.2zm2.54 6.75 6.23 14.26h-12.45z"/><path d="m202.32 33.13v4.85h11.24v29.12h5.35v-29.12h11.28v-4.85z"/><path d="m242.11 33.13v33.97h24.87v-4.93h-19.51v-10.77h15.38v-4.93h-15.38v-8.49h18.91v-4.85z"/></g></svg>